<?xml version="1.0" encoding="UTF-8" standalone="no"?>
<svg width="26px" height="25px" viewBox="0 0 26 25" version="1.1" xmlns="http://www.w3.org/2000/svg" xmlns:xlink="http://www.w3.org/1999/xlink" xmlns:sketch="http://www.bohemiancoding.com/sketch/ns">
    <!-- Generator: Sketch Beta 3.2.2 (9983) - http://www.bohemiancoding.com/sketch -->
    <title>Bubble chat</title>
    <desc>Created with Sketch Beta.</desc>
    <defs></defs>
    <g id="Page-1" stroke="none" stroke-width="1" fill="none" fill-rule="evenodd" sketch:type="MSPage">
        <g id="Bubble-chat" sketch:type="MSLayerGroup" transform="translate(1.000000, 1.000000)">
            <path d="M20,18 L22.9993054,18 C23.5525308,18 24,17.5552407 24,17.0066023 L24,0.993397683 C24,0.444946289 23.5519738,0 22.9993054,0 L1.00069463,0 C0.44746922,0 0,0.444759292 0,0.993397683 L0,17.0066023 C0,17.5550537 0.448026248,18 1.00069463,18 L14.1666667,18 L19.2375519,22.3464731 C19.6623755,22.7106075 20,22.5564136 20,22.009222 L20,18 Z" id="Rectangle-113" stroke="#474747" stroke-width="2" sketch:type="MSShapeGroup"></path>
            <g id="Group-2" transform="translate(5.000000, 5.000000)" fill="#575757" sketch:type="MSShapeGroup">
                <rect id="Rectangle-26" x="0" y="0" width="13" height="1"></rect>
                <rect id="Rectangle-27" x="0" y="3" width="13" height="1"></rect>
                <rect id="Rectangle-29" x="0" y="6" width="9" height="1"></rect>
            </g>
        </g>
    </g>
</svg>