<svg width="26" height="25" viewBox="0 0 26 25" xmlns="http://www.w3.org/2000/svg">
    <g fill="none" fill-rule="evenodd">
        <g>
            <path d="M20 19h4c.553 0 1-.445 1-.993V1.993C25 1.445 24.552 1 24 1H2c-.553 0-1 .445-1 .993v16.014c0 .548.448.993 1 .993h12.167l5.07 4.346c.425.365.763.21.763-.337V19z" stroke="#474747" stroke-width="2"/>
            <g fill="#575757">
                <g>
                    <path id="Rectangle-142" d="M7 11h2v1H7z"/>
                    <g id="Rectangle-141-+-Rectangle-143-+-Rectangle-144">
                        <path id="Rectangle-141" d="M7 8h2v1H7z"/>
                        <path id="Rectangle-143" d="M6 9h1v2H6z"/>
                        <path id="Rectangle-144" d="M9 9h1v2H9z"/>
                    </g>
                </g>
                <g>
                    <path id="Rectangle-142" d="M12 11h2v1h-2z"/>
                    <g id="Rectangle-141-+-Rectangle-143-+-Rectangle-144">
                        <path id="Rectangle-141" d="M12 8h2v1h-2z"/>
                        <path id="Rectangle-143" d="M11 9h1v2h-1z"/>
                        <path id="Rectangle-144" d="M14 9h1v2h-1z"/>
                    </g>
                </g>
                <g>
                    <path d="M17 11h2v1h-2z"/>
                    <g>
                        <path d="M17 8h2v1h-2z"/>
                        <path d="M16 9h1v2h-1z"/>
                        <path d="M19 9h1v2h-1z"/>
                    </g>
                </g>
            </g>
        </g>
    </g>
</svg>
