<?xml version="1.0" encoding="UTF-8" standalone="no"?>
<svg width="26px" height="26px" viewBox="0 0 26 26" version="1.1" xmlns="http://www.w3.org/2000/svg" xmlns:xlink="http://www.w3.org/1999/xlink" xmlns:sketch="http://www.bohemiancoding.com/sketch/ns">
    <!-- Generator: Sketch Beta 3.3 (11523) - http://www.bohemiancoding.com/sketch -->
    <title>Bubble exclamation 1</title>
    <desc>Created with Sketch Beta.</desc>
    <defs></defs>
    <g id="Page-1" stroke="none" stroke-width="1" fill="none" fill-rule="evenodd" sketch:type="MSPage">
        <g id="Bubble-exclamation-1" sketch:type="MSLayerGroup" transform="translate(1.000000, 1.000000)">
            <path d="M19,19 L22.9993054,19 C23.5525308,19 24,18.5546258 24,18.0052288 L24,0.994771168 C24,0.450925395 23.5519738,0 22.9993054,0 L1.00069463,0 C0.44746922,0 0,0.445374222 0,0.994771168 L0,18.0052288 C0,18.5490746 0.448026248,19 1.00069463,19 L13.1666667,19 L18.2375519,23.3464731 C18.6623755,23.7106075 19,23.5564136 19,23.009222 L19,19 Z" id="Rectangle-113" stroke="#474747" stroke-width="2" sketch:type="MSShapeGroup"></path>
            <g id="Rectangle-26-+-Rectangle-34" transform="translate(11.000000, 4.000000)" fill="#575757" sketch:type="MSShapeGroup">
                <rect id="Rectangle-311" x="0" y="0" width="1" height="7"></rect>
                <rect id="Rectangle-312" x="2" y="0" width="1" height="7"></rect>
                <rect id="Rectangle-313" x="0" y="0" width="3" height="1"></rect>
                <rect id="Rectangle-314" x="0" y="6" width="3" height="1"></rect>
                <path d="M0,8 L3,8 L3,9 L0,9 L0,8 Z M0,10 L3,10 L3,11 L0,11 L0,10 Z" id="Rectangle-315"></path>
                <path d="M2,8 L3,8 L3,11 L2,11 L2,8 Z M0,8 L1,8 L1,11 L0,11 L0,8 Z" id="Rectangle-317"></path>
            </g>
        </g>
    </g>
</svg>