<svg width="26" height="26" viewBox="0 0 26 26" xmlns="http://www.w3.org/2000/svg">
    <g fill="none" fill-rule="evenodd">
        <g>
            <path d="M20 20h4c.553 0 1-.445 1-.995V1.995C25 1.45 24.552 1 24 1H2c-.553 0-1 .445-1 .995v17.01c0 .544.448.995 1 .995h12.167l5.07 4.346c.425.365.763.21.763-.337V20z" stroke="#474747" stroke-width="2"/>
            <path d="M12 7h1v3h-1V7zm-3 3h1v2H9v-2zm8 0h1v2h-1v-2zm-5-4h3v1h-3V6zm0 8h3v1h-3v-1zm2-7h1v3h-1V7zm0 4h1v3h-1v-3zm-2 0h1v3h-1v-3zm3 0h2v1h-2v-1zm0-2h3v1h-3V9zM9 9h3v1H9V9zm1 2h2v1h-2v-1z" fill="#575757"/>
        </g>
    </g>
</svg>
