<svg width="26" height="25" viewBox="0 0 26 25" xmlns="http://www.w3.org/2000/svg">
    <g fill="none" fill-rule="evenodd">
        <path d="M20 19h4c.553 0 1-.445 1-.993V1.993C25 1.445 24.552 1 24 1H2c-.553 0-1 .445-1 .993v16.014c0 .548.448.993 1 .993h12.167l5.07 4.346c.425.365.763.21.763-.337V19z" stroke="#474747" stroke-width="2"/>
        <path d="M7 11h2v1H7zm0-3h2v1H7zM6 9h1v2H6zm3 0h1v2H9zm3 2h2v1h-2zm0-3h2v1h-2zm-1 1h1v2h-1zm3 0h1v2h-1zm3 2h2v1h-2zm0-3h2v1h-2zm-1 1h1v2h-1zm3 0h1v2h-1z" fill="#575757"/>
    </g>
</svg>
