<svg width="26" height="26" viewBox="0 0 26 26" xmlns="http://www.w3.org/2000/svg">
    <g transform="translate(1 1)" fill="none" fill-rule="evenodd">
        <path d="M17.538 13.398c.973-.792 1.847-2.07 1.847-3.6 0-2.37-1.863-4.198-3.693-4.198-1.605 0-3.498 1.194-3.692 1.8-.194-.606-2.087-1.8-3.692-1.8-1.83 0-3.693 1.83-3.693 4.2 0 1.53.874 2.806 1.847 3.598l5.538 4.8 5.538-4.8zm.395.46l.014-.01-5.538 4.798L12 19l-.41-.354-5.523-4.787C4.817 12.84 4 11.373 4 9.8 4 7.206 6.034 5 8.308 5c1.68 0 3.96 1.22 4.28 2.22h-1.175c.32-1 2.598-2.22 4.28-2.22C17.965 5 20 7.207 20 9.8c0 1.577-.816 3.04-2.067 4.06z" fill="#474747"/>
        <rect stroke="#474747" stroke-width="2" width="24" height="24" rx="1"/>
    </g>
</svg>
