<svg width="34" height="34" viewBox="0 0 34 34" xmlns="http://www.w3.org/2000/svg">
    <g fill="none" fill-rule="evenodd">
        <g transform="translate(1 1)">
            <path d="M22.923 17.798c1.215-1.018 2.308-2.66 2.308-4.628 0-3.047-2.327-5.4-4.615-5.4-2.006 0-4.372 1.537-4.615 2.315-.243-.778-2.61-2.314-4.615-2.314-2.288 0-4.616 2.353-4.616 5.4 0 1.968 1.092 3.61 2.307 4.628L16 23.968l6.923-6.17zm.493.592l.018-.016-6.923 6.17L16 25l-.51-.455-6.906-6.155C7.02 17.08 6 15.2 6 13.17 6 9.838 8.542 7 11.385 7c2.102 0 4.948 1.57 5.35 2.855h-1.47C15.668 8.57 18.514 7 20.616 7 23.458 7 26 9.838 26 13.17c0 2.03-1.02 3.91-2.584 5.22z" fill="#575757"/>
            <rect stroke="#474747" stroke-width="2" width="32" height="32" rx="1"/>
        </g>
    </g>
</svg>
