<?xml version="1.0" encoding="UTF-8" standalone="no"?>
<svg width="26px" height="26px" viewBox="0 0 26 26" version="1.1" xmlns="http://www.w3.org/2000/svg" xmlns:xlink="http://www.w3.org/1999/xlink" xmlns:sketch="http://www.bohemiancoding.com/sketch/ns">
    <!-- Generator: Sketch Beta 3.3 (11523) - http://www.bohemiancoding.com/sketch -->
    <title>Bubble chat</title>
    <desc>Created with Sketch Beta.</desc>
    <defs></defs>
    <g id="Page-1" stroke="none" stroke-width="1" fill="none" fill-rule="evenodd" sketch:type="MSPage">
        <g id="Bubble-chat" sketch:type="MSLayerGroup" transform="translate(1.000000, 1.000000)">
            <path d="M19,19 L22.9993054,19 C23.5525308,19 24,18.5546258 24,18.0052288 L24,0.994771168 C24,0.450925395 23.5519738,0 22.9993054,0 L1.00069463,0 C0.44746922,0 0,0.445374222 0,0.994771168 L0,18.0052288 C0,18.5490746 0.448026248,19 1.00069463,19 L13.1666667,19 L18.2375519,23.3464731 C18.6623755,23.7106075 19,23.5564136 19,23.009222 L19,19 Z" id="Rectangle-113" stroke="#474747" stroke-width="2" sketch:type="MSShapeGroup"></path>
            <g id="Group-2" transform="translate(5.000000, 6.000000)" fill="#575757" sketch:type="MSShapeGroup">
                <rect id="Rectangle-26" x="0" y="0" width="13" height="1"></rect>
                <rect id="Rectangle-27" x="0" y="3" width="13" height="1"></rect>
                <rect id="Rectangle-29" x="0" y="6" width="9" height="1"></rect>
            </g>
        </g>
    </g>
</svg>