<svg width="26" height="34" viewBox="0 0 26 34" xmlns="http://www.w3.org/2000/svg">
    <g fill="none" fill-rule="evenodd">
        <path d="M1 1.993c0-.55.45-.993.995-.993h17.01c.55 0 1.34.275 1.776.625l3.44 2.75c.43.345.78 1.065.78 1.622v26.006c0 .55-.443.997-1 .997H2c-.552 0-1-.452-1-.993V1.993z" stroke="#474747" stroke-width="2"/>
        <path fill="#474747" d="M18 2h1v6h-1zm0 5h6v1h-6z"/>
        <path d="M16 15h4v1h-4zm3 0h1v6h-1zm-9 4h1v3h-1zm0 2h10v1H10zm-4-9h10v1H6zm0 6h10v1H6zm0-6h1v7H6zm9 0h1v7h-1z" fill="#575757"/>
    </g>
</svg>
