<svg width="26" height="34" viewBox="0 0 26 34" xmlns="http://www.w3.org/2000/svg">
    <g fill="none" fill-rule="evenodd">
        <path d="M1 1.993c0-.55.45-.993.995-.993h17.01c.55 0 1.34.275 1.776.625l3.44 2.75c.43.345.78 1.065.78 1.622v26.006c0 .55-.443.997-1 .997H2c-.552 0-1-.452-1-.993V1.993z" stroke="#474747" stroke-width="2"/>
        <path fill="#474747" d="M18 2h1v6h-1zm0 5h6v1h-6z"/>
        <path d="M6 12h14v1H6zm0 9h14v1H6zm0-9h1v10H6zm13 0h1v10h-1zM6 15h14v1H6zm0 3h14v1H6zm3-5h1v8H9z" fill="#575757"/>
    </g>
</svg>
