<svg width="26" height="34" viewBox="0 0 26 34" xmlns="http://www.w3.org/2000/svg">
    <g fill="none" fill-rule="evenodd">
        <path d="M1 1.993c0-.55.45-.993.995-.993h17.01c.55 0 1.34.275 1.776.625l3.44 2.75c.43.345.78 1.065.78 1.622v26.006c0 .55-.445.997-1 .997H2c-.552 0-1-.452-1-.993V1.993z" stroke="#474747" stroke-width="2"/>
        <path fill="#474747" d="M18 2h1v6h-1zm0 5h6v1h-6z"/>
        <path d="M18 18c0 3.314-2.686 6-6 6s-6-2.686-6-6 2.686-6 6-6v1c-2.76 0-5 2.24-5 5s2.24 5 5 5 5-2.24 5-5h1zm-6-6h1v6h-1v-6zm1 5h5v1h-5v-1zm7-1c0-3.314-2.686-6-6-6v6h6z" fill="#575757"/>
        <path d="M18.69 15c-.147-1.97-1.72-3.543-3.69-3.69V15h3.69z" fill="#fff"/>
    </g>
</svg>
