<svg width="26" height="34" viewBox="0 0 26 34" xmlns="http://www.w3.org/2000/svg">
    <g fill="none" fill-rule="evenodd">
        <g>
            <path d="M1 1.993c0-.55.45-.993.995-.993h17.01c.55 0 1.34.275 1.776.625l3.44 2.75c.43.345.78 1.065.78 1.622v26.006c0 .55-.447.997-1 .997H2c-.552 0-1-.452-1-.993V1.993z" stroke="#474747" stroke-width="2"/>
            <path fill="#474747" d="M18 2h1v6h-1z"/>
            <path fill="#474747" d="M18 7h6v1h-6z"/>
            <g fill="#575757">
                <path d="M6 12h14v1H6z"/>
                <path d="M6 21h14v1H6z"/>
                <path d="M6 12h1v10H6z"/>
                <path d="M19 12h1v10h-1z"/>
                <g>
                    <path d="M6 15h14v1H6z"/>
                    <path d="M6 18h14v1H6z"/>
                </g>
                <path d="M9 13h1v8H9z"/>
            </g>
        </g>
    </g>
</svg>
