<?xml version="1.0" encoding="UTF-8" standalone="no"?>
<svg width="26px" height="34px" viewBox="0 0 26 34" version="1.1" xmlns="http://www.w3.org/2000/svg" xmlns:xlink="http://www.w3.org/1999/xlink" xmlns:sketch="http://www.bohemiancoding.com/sketch/ns">
    <!-- Generator: Sketch Beta 3.2.2 (9983) - http://www.bohemiancoding.com/sketch -->
    <title>Sheet folded piechart</title>
    <desc>Created with Sketch Beta.</desc>
    <defs></defs>
    <g id="Page-1" stroke="none" stroke-width="1" fill="none" fill-rule="evenodd" sketch:type="MSPage">
        <g id="Sheet-folded-piechart" sketch:type="MSLayerGroup" transform="translate(1.000000, 1.000000)">
            <g id="Sheet-folded-table-2" sketch:type="MSShapeGroup">
                <path d="M0,0.992786407 C0,0.444485615 0.450925395,0 0.994771168,0 L18.0052288,0 C18.5546258,0 19.3436702,0.274936199 19.78125,0.625 L23.21875,3.375 C23.6502225,3.72017797 24,4.43981314 24,4.99653482 L24,31.0034652 C24,31.5538362 23.5525308,32 22.9993054,32 L1.00069463,32 C0.448026248,32 0,31.5476379 0,31.0072136 L0,0.992786407 Z" id="Rectangle-23" stroke="#474747" stroke-width="2"></path>
                <rect id="Rectangle-35" fill="#474747" x="17" y="1" width="1" height="6"></rect>
                <rect id="Rectangle-36" fill="#474747" x="17" y="6" width="6" height="1"></rect>
            </g>
            <g id="Oval-2-+-Oval-5" transform="translate(6.000000, 9.000000)" stroke="#575757" fill="#FFFFFF" sketch:type="MSShapeGroup">
                <path d="M12,7 C12,10.3137085 9.3137085,13 6,13 C2.6862915,13 0,10.3137085 0,7 C0,3.6862915 2.6862915,1 6,1 L6,7 L12,7 Z" id="Oval-2"></path>
                <path d="M13,6 C13,2.6862915 10.3137085,0 7,0 L7,6 L13,6 Z" id="Oval-3"></path>
            </g>
        </g>
    </g>
</svg>