<svg width="26" height="34" viewBox="0 0 26 34" xmlns="http://www.w3.org/2000/svg">
    <g fill="none" fill-rule="evenodd">
        <g>
            <path d="M1 1.993c0-.55.45-.993.995-.993h17.01c.55 0 1.34.275 1.776.625l3.44 2.75c.43.345.78 1.065.78 1.622v26.006c0 .55-.447.997-1 .997H2c-.552 0-1-.452-1-.993V1.993z" stroke="#474747" stroke-width="2"/>
            <path fill="#474747" d="M18 2h1v6h-1z"/>
            <path fill="#474747" d="M18 7h6v1h-6z"/>
            <g transform="translate(1 1) translate(5 10)" fill="#575757">
                <ellipse id="Oval-54" transform="rotate(-30 3 11)" cx="3" cy="11" rx="2" ry="1.5"/>
                <ellipse transform="rotate(-30 10 10)" cx="10" cy="10" rx="2" ry="1.5"/>
                <path d="M4 2h1v9H4zM11 1h1v9h-1zM4 2l8-2v1L4 3V2z"/>
            </g>
        </g>
    </g>
</svg>
