<svg width="26" height="34" viewBox="0 0 26 34" xmlns="http://www.w3.org/2000/svg">
    <g fill="none" fill-rule="evenodd">
        <rect width="24" height="32" rx="1" stroke="#474747" stroke-width="2" transform="translate(1 1)"/>
        <path d="M18 18c0 3.314-2.686 6-6 6s-6-2.686-6-6 2.686-6 6-6v1c-2.76 0-5 2.24-5 5s2.24 5 5 5 5-2.24 5-5h1zm-6-6h1v6h-1v-6zm1 5h5v1h-5v-1zm7-1c0-3.314-2.686-6-6-6v6h6z" fill="#575757"/>
        <path d="M18.69 15c-.147-1.97-1.72-3.543-3.69-3.69V15h3.69z" fill="#fff"/>
    </g>
</svg>
