<svg width="26" height="34" viewBox="0 0 26 34" xmlns="http://www.w3.org/2000/svg">
    <g fill="none" fill-rule="evenodd">
        <g transform="translate(1)">
            <rect stroke="#474747" stroke-width="2" y="1" width="24" height="32" rx="1"/>
            <g fill="#575757">
                <path d="M5 12h1v10H5z"/>
                <path d="M18 12h1v8h-1z"/>
                <path d="M5 12h14v1H5z"/>
                <path d="M5 21h11v1H5z"/>
                <path d="M18 19h1l-2 3h-1l2-3z"/>
                <path d="M5 14h13v1H5z"/>
                <path d="M8 13h1v1H8z"/>
                <path d="M10 13h1v1h-1z"/>
                <path d="M12 13h1v1h-1z"/>
                <path d="M14 13h1v1h-1z"/>
                <path d="M16 13h1v1h-1z"/>
            </g>
        </g>
    </g>
</svg>
