<svg width="26" height="34" viewBox="0 0 26 34" xmlns="http://www.w3.org/2000/svg">
    <g fill="none" fill-rule="evenodd">
        <g>
            <path d="M1 1.993c0-.55.45-.993.995-.993h17.01c.55 0 1.34.275 1.776.625l3.44 2.75c.43.345.78 1.065.78 1.622v26.006c0 .55-.447.997-1 .997H2c-.552 0-1-.452-1-.993V1.993z" stroke="#474747" stroke-width="2"/>
            <path fill="#474747" d="M18 2h1v6h-1z"/>
            <path fill="#474747" d="M18 7h6v1h-6z"/>
            <g fill="#575757">
                <path d="M9 12h1v10H9z"/>
                <path d="M7 18h1v4H7z"/>
                <path d="M13 17h1v5h-1z"/>
                <path d="M17 20h1v2h-1z"/>
                <path d="M15 14h1v8h-1z"/>
                <path d="M11 15h1v7h-1z"/>
            </g>
        </g>
    </g>
</svg>
