<svg width="34" height="34" viewBox="0 0 34 34" xmlns="http://www.w3.org/2000/svg">
    <g fill="none" fill-rule="evenodd">
        <g transform="translate(1 1)">
            <rect stroke="#474747" stroke-width="2" width="32" height="32" rx="1"/>
            <path d="M10.044 23.696l5.467-2.87.49-.258.49.257 5.466 2.87.137.794-.372.27-.712-.376-1.044-6.08-.094-.545.396-.386 4.423-4.307.796.116.142.436-.577.56-6.11-.886-.548-.08-.245-.495-2.733-5.533.356-.722h.46l.356.722-2.733 5.532-.245.494-.547.08-6.11.887-.578-.56.142-.437.797-.116 4.424 4.307.396.385-.094.543-1.044 6.08-.713.376-.373-.27.137-.794zM16 21.754L9.82 25 11 18.126l-5-4.87 6.91-1.002L16 6l3.09 6.254L26 13.257l-5 4.87L22.18 25 16 21.754z" fill="#575757"/>
        </g>
    </g>
</svg>
