<svg width="26" height="26" viewBox="0 0 26 26" xmlns="http://www.w3.org/2000/svg">
    <g transform="translate(1 1)" fill="none" fill-rule="evenodd">
        <rect stroke="#474747" stroke-width="2" width="24" height="24" rx="1"/>
        <path d="M7.235 17.97l4.374-2.266.39-.203.39.206 4.373 2.266.11.628-.298.213-.57-.295-.836-4.8-.075-.43.317-.305 3.538-3.4.64.09.114.345-.462.444-4.89-.703-.436-.063-.196-.39-2.187-4.37.286-.57h.366l.285.57-2.187 4.37-.196.39-.437.062-4.89.7-.462-.444.114-.344.64-.09 3.537 3.4.315.303-.075.43-.835 4.8-.57.297-.298-.213.11-.628zM12 16.438L7.056 19 8 13.573 4 9.73l5.528-.792L12 4l2.472 4.938 5.528.79-4 3.845.944 5.427L12 16.438z" fill="#575757"/>
    </g>
</svg>
